<?xml version="1.0" encoding="utf-8"?>
<!-- Generator: Adobe Illustrator 12.0.0, SVG Export Plug-In . SVG Version: 6.00 Build 51448)  -->
<!DOCTYPE svg PUBLIC "-//W3C//DTD SVG 1.1//EN" "http://www.w3.org/Graphics/SVG/1.1/DTD/svg11.dtd" [
	<!ENTITY ns_svg "http://www.w3.org/2000/svg">
	<!ENTITY ns_xlink "http://www.w3.org/1999/xlink">
]>
<svg  version="1.1" id="レイヤー_1" xmlns="&ns_svg;" xmlns:xlink="&ns_xlink;" width="284" height="350"
	 viewBox="-48.113 -139.866 284 350" overflow="visible" enable-background="new -48.113 -139.866 284 350" xml:space="preserve">
<g>
	<g>
		<path fill="#FFFFFF" d="M94.03,210.134l-3.579-1.171c-33.379-11.004-61.386-27.025-83.131-47.79
			c-17.865-16.635-31.572-36.515-41.125-58.498c-15.477-35.928-14.287-66.512-14.287-70.07v-172.47h283.949v172.47
			c0,2.373,0.896,23.151-7.142,50.193c-7.745,26.11-25.634,63.523-66.45,93.509c-18.763,13.647-40.814,24.64-65.839,32.954
			L94.03,210.134z M-40.947-132.149V32.604l0,0c-0.296,3.273-1.478,32.355,13.426,67.1c8.935,21.081,22.339,39.771,39.022,55.809
			c21.157,19.896,47.968,35.33,79.86,45.73l2.375,0.891l1.791-0.589c23.842-7.731,45.292-18.406,63.172-31.469
			c39.031-28.511,56.015-64.127,63.473-89.381c7.746-25.824,6.849-45.718,6.849-47.774l0,0v-165.07H-40.947z"/>
	</g>
</g>
<path fill="#FFFFFF" d="M161.662-74.568"/>
<path fill="#FFFFFF" d="M63.648,33.206c1.787-2.673,8.636-15.137,16.698-29.986c5.348-0.585,17.277-2.085,26.506-1.771
	c6.248,0.602,8.937,2.673,8.642,5.946c-0.306,1.186-2.688,6.231-7.745,15.135L91.965,51.027
	C79.141,49.826,53.816,48.94,63.648,33.206z M83.014-1.824c12.514-22.867,30.983-58.782,31.88-58.782
	c16.683,0.302,26.507,1.188,29.801,1.188c13.698-0.315,39.33-4.458,39.023-21.396c0-8-6.85-10.389-13.104-13.647l-0.311,0.3
	c3.279,2.373,6.255,5.046,5.669,9.489c-2.376,24.654-48.563,20.796-65.553,19.594C71.688-67.152,16.256-75.168,2.264-21.432
	c0.594-0.299,1.493-0.299,2.081-0.299c0.895-1.188,1.499-2.975,1.79-3.56c13.7-32.956,52.437-34.443,91.769-35.029
	c-2.977,5.632-49.768,89.367-53.935,95.881c-14.301,22.568,27.72,20.78,45.292,19.896L68.103,93.171
	c-5.657,10.093-12.508,20.781-21.149,29.384c0.292,0,2.372-0.313,2.372-0.313c3.27-0.887,4.477-2.074,8.039-2.943
	c21.453-5.646,43.499,2.072,64.952-0.916c20.864-2.672,34.275-14.521,38.148-32.655c4.474-22.838-27.412-31.741-30.696-32.058
	c28.902-2.957,42.608-11.858,46.187-26.695C186.986-16.974,110.126-4.497,83.014-1.824z M138.426,62.003
	c5.958,5.36,8.642,12.161,7.435,20.195c-1.182,9.804-6.85,17.807-17.278,23.751c-9.245,5.646-19.665,8.318-30.99,8.003
	c-4.475,0-8.642-0.601-12.516-1.186c-5.952-1.171-8.642-2.674-8.348-4.759c0-0.587,0.897-2.376,2.382-4.744l27.11-48.994
	C108.624,53.985,126.805,51.611,138.426,62.003z M162.561,22.515c-2.39,18.978-17.287,28.798-44.689,29.367c0,0-2.082-0.285-2.082,0
	h-7.746c0,0,16.697-29.685,16.991-29.969l6.849-12.761c2.684-4.445,6.247-6.833,10.724-6.833c6.268,0,11.619,2.087,15.197,5.947
	C161.662,11.824,163.162,16.869,162.561,22.515z"/>
</svg>
