<?xml version="1.0" encoding="utf-8"?>
<!-- Generator: Adobe Illustrator 12.0.0, SVG Export Plug-In . SVG Version: 6.00 Build 51448)  -->
<!DOCTYPE svg PUBLIC "-//W3C//DTD SVG 1.1//EN" "http://www.w3.org/Graphics/SVG/1.1/DTD/svg11.dtd" [
	<!ENTITY ns_svg "http://www.w3.org/2000/svg">
	<!ENTITY ns_xlink "http://www.w3.org/1999/xlink">
]>
<svg  version="1.1" id="レイヤー_1" xmlns="&ns_svg;" xmlns:xlink="&ns_xlink;" width="99.995" height="22.765"
	 viewBox="-0.001 38.618 99.995 22.765" overflow="visible" enable-background="new -0.001 38.618 99.995 22.765"
	 xml:space="preserve">
<g>
	<g>
		<path fill="#FFFFFF" d="M9.21,61.383l-0.232-0.076C6.815,60.591,5,59.549,3.591,58.198c-1.158-1.082-2.046-2.375-2.665-3.805
			C-0.077,52.056,0,50.067,0,49.836V38.618h18.401v11.218c0,0.154,0.058,1.506-0.463,3.265c-0.502,1.698-1.661,4.132-4.306,6.082
			c-1.216,0.888-2.645,1.603-4.267,2.144L9.21,61.383z M0.463,39.12v10.716l0,0c-0.019,0.213-0.096,2.104,0.87,4.364
			c0.579,1.371,1.448,2.587,2.529,3.63c1.371,1.294,3.108,2.298,5.175,2.975l0.154,0.058l0.116-0.038
			c1.545-0.503,2.935-1.197,4.094-2.047c2.529-1.854,3.63-4.171,4.113-5.813c0.502-1.68,0.444-2.974,0.444-3.107l0,0V39.12H0.463z"
			/>
	</g>
</g>
<path fill="#FFFFFF" d="M13.593,42.865"/>
<path fill="#FFFFFF" d="M7.241,49.875c0.116-0.174,0.56-0.984,1.082-1.95c0.347-0.038,1.12-0.136,1.718-0.115
	c0.405,0.039,0.579,0.174,0.56,0.387c-0.02,0.077-0.174,0.405-0.502,0.984l-1.023,1.854C8.245,50.956,6.604,50.898,7.241,49.875z
	 M8.496,47.596c0.811-1.487,2.008-3.823,2.066-3.823c1.081,0.02,1.718,0.077,1.931,0.077c0.888-0.021,2.549-0.29,2.529-1.392
	c0-0.521-0.444-0.676-0.849-0.888l-0.02,0.02c0.212,0.154,0.405,0.328,0.367,0.617c-0.154,1.604-3.147,1.353-4.248,1.274
	c-2.51-0.135-6.102-0.656-7.009,2.839c0.039-0.02,0.097-0.02,0.135-0.02c0.058-0.077,0.097-0.193,0.116-0.231
	c0.888-2.144,3.398-2.24,5.947-2.278c-0.193,0.366-3.225,5.813-3.495,6.236c-0.927,1.468,1.796,1.352,2.935,1.294L7.53,53.775
	c-0.367,0.656-0.811,1.352-1.371,1.911c0.019,0,0.154-0.021,0.154-0.021c0.212-0.058,0.29-0.135,0.521-0.191
	c1.39-0.367,2.819,0.135,4.209-0.06c1.352-0.174,2.221-0.944,2.472-2.124c0.29-1.485-1.776-2.064-1.989-2.085
	c1.873-0.192,2.761-0.771,2.993-1.736C15.234,46.611,10.253,47.423,8.496,47.596z M12.087,51.748
	c0.386,0.349,0.56,0.791,0.482,1.313c-0.077,0.638-0.444,1.158-1.12,1.545c-0.599,0.367-1.274,0.541-2.008,0.521
	c-0.29,0-0.56-0.039-0.811-0.077c-0.386-0.076-0.56-0.174-0.541-0.31c0-0.038,0.058-0.154,0.154-0.309L10,51.245
	C10.156,51.226,11.334,51.072,12.087,51.748z M13.651,49.179c-0.155,1.234-1.12,1.873-2.896,1.91c0,0-0.135-0.019-0.135,0h-0.502
	c0,0,1.082-1.931,1.101-1.949l0.444-0.83c0.174-0.289,0.405-0.444,0.695-0.444c0.406,0,0.753,0.136,0.985,0.387
	C13.593,48.484,13.69,48.812,13.651,49.179z"/>
<path fill="#FFFFFF" d="M30.199,43.888c-0.077-0.097-0.231-0.231-0.502-0.231h-6.99c-0.174,0-0.328,0.058-0.463,0.193
	c-0.154,0.114-0.231,0.271-0.271,0.425c-0.039,0.193,0,0.367,0.116,0.502c0.116,0.154,0.27,0.23,0.463,0.23h2.8l-1.989,9.308
	c-0.039,0.174,0,0.348,0.096,0.482c0.116,0.154,0.271,0.231,0.463,0.231c0.174,0,0.329-0.058,0.463-0.193
	c0.155-0.114,0.232-0.271,0.271-0.425l2.008-9.403h2.877c0.174,0,0.348-0.058,0.482-0.192c0.155-0.115,0.232-0.271,0.271-0.443
	C30.354,44.198,30.295,44.044,30.199,43.888z"/>
<path fill="#FFFFFF" d="M47.461,47.48c-0.193-0.231-0.444-0.425-0.734-0.541c-0.29-0.115-0.599-0.174-0.927-0.174h-2.433l0.482-2.26
	c0.039-0.212-0.019-0.348-0.097-0.404c-0.096-0.098-0.212-0.154-0.367-0.154c-0.135,0-0.271,0.058-0.386,0.154
	c-0.115,0.096-0.193,0.23-0.231,0.367l-2.105,9.904c-0.039,0.154,0,0.289,0.077,0.387c0.078,0.115,0.212,0.174,0.367,0.174
	c0.135,0,0.27-0.059,0.405-0.136c0.116-0.097,0.193-0.213,0.232-0.366l1.41-6.604h2.491c0.193,0,0.367,0.038,0.541,0.116
	c0.154,0.077,0.29,0.192,0.386,0.328c0.097,0.135,0.174,0.328,0.212,0.521c0.039,0.212,0.019,0.443-0.02,0.714l-1.042,4.866
	c-0.039,0.154,0,0.289,0.077,0.386c0.077,0.116,0.212,0.175,0.367,0.175c0.135,0,0.271-0.059,0.406-0.136
	c0.116-0.097,0.193-0.213,0.231-0.366l1.043-4.904c0.097-0.425,0.097-0.813,0.039-1.158C47.789,48.002,47.654,47.712,47.461,47.48z"
	/>
<path fill="#FFFFFF" d="M54.875,47.48c-0.193-0.231-0.444-0.425-0.734-0.541c-0.29-0.115-0.599-0.174-0.927-0.174h-2.78
	c-0.232,0-0.425,0.078-0.599,0.231c-0.174,0.154-0.271,0.328-0.309,0.54l-1.448,6.797c-0.039,0.154,0,0.29,0.078,0.405
	c0.077,0.116,0.212,0.174,0.367,0.174c0.135,0,0.29-0.058,0.405-0.154c0.116-0.097,0.212-0.23,0.232-0.404l1.39-6.565h2.491
	c0.193,0,0.367,0.039,0.541,0.116c0.155,0.077,0.29,0.193,0.386,0.328c0.097,0.136,0.174,0.328,0.212,0.521
	c0.039,0.212,0.039,0.444-0.019,0.677l-1.062,4.903c-0.039,0.154,0,0.29,0.077,0.405c0.077,0.116,0.212,0.174,0.367,0.174
	c0.135,0,0.29-0.058,0.406-0.154c0.116-0.096,0.193-0.23,0.231-0.366l1.043-4.886c0.096-0.425,0.096-0.811,0.039-1.157
	C55.185,48.002,55.068,47.712,54.875,47.48z"/>
<path fill="#FFFFFF" d="M62.502,47.654c-0.193-0.271-0.425-0.502-0.734-0.656c-0.309-0.153-0.656-0.231-1.042-0.231H59.78
	c-0.386,0-0.772,0.078-1.139,0.231c-0.367,0.154-0.695,0.366-0.985,0.638c-0.29,0.271-0.541,0.578-0.753,0.945
	c-0.212,0.367-0.367,0.753-0.444,1.179l-0.502,2.354c-0.096,0.425-0.116,0.831-0.039,1.178c0.058,0.349,0.193,0.657,0.386,0.908
	c0.193,0.251,0.444,0.443,0.753,0.599c0.309,0.136,0.657,0.213,1.043,0.213h0.946c0.367,0,0.753-0.077,1.101-0.193
	c0.347-0.135,0.676-0.328,0.984-0.579c0.29-0.251,0.541-0.54,0.753-0.888c0.212-0.349,0.367-0.734,0.444-1.159l0.502-2.355
	c0.097-0.425,0.116-0.83,0.058-1.196C62.792,48.253,62.676,47.925,62.502,47.654z M59.181,53.969h-0.946
	c-0.232,0-0.425-0.038-0.599-0.136c-0.174-0.097-0.328-0.212-0.425-0.386c-0.116-0.155-0.193-0.348-0.212-0.561
	c-0.039-0.213-0.02-0.464,0.019-0.715l0.502-2.355c0.058-0.251,0.155-0.502,0.29-0.753c0.135-0.231,0.309-0.463,0.482-0.637
	c0.193-0.193,0.406-0.328,0.637-0.444c0.232-0.116,0.444-0.174,0.676-0.174h0.946c0.212,0,0.425,0.058,0.599,0.153
	c0.174,0.116,0.309,0.251,0.405,0.426c0.097,0.174,0.174,0.387,0.212,0.638c0.039,0.23,0.02,0.481-0.019,0.732l-0.502,2.355
	c-0.058,0.251-0.155,0.502-0.29,0.715c-0.135,0.231-0.29,0.425-0.482,0.6c-0.174,0.174-0.386,0.288-0.618,0.386
	C59.645,53.91,59.413,53.969,59.181,53.969z"/>
<path fill="#FFFFFF" d="M73.026,48.272c0.328-0.425,0.541-0.908,0.656-1.448c0.097-0.425,0.097-0.83,0.02-1.217
	c-0.078-0.386-0.232-0.714-0.463-1.004c-0.232-0.29-0.521-0.521-0.869-0.676c-0.348-0.175-0.734-0.251-1.178-0.251h-3.495
	c-0.27,0-0.502,0.076-0.714,0.251c-0.193,0.174-0.328,0.386-0.386,0.655l-2.008,9.442c-0.058,0.289-0.02,0.521,0.135,0.714
	c0.096,0.136,0.309,0.29,0.676,0.29h3.727c0.444,0,0.888-0.077,1.313-0.251c0.425-0.174,0.811-0.387,1.178-0.676
	c0.348-0.29,0.656-0.639,0.907-1.004c0.251-0.388,0.425-0.813,0.521-1.255c0.135-0.639,0.097-1.236-0.135-1.759
	c-0.174-0.386-0.425-0.732-0.733-0.983C72.504,48.871,72.794,48.581,73.026,48.272z M71.732,51.728
	c-0.058,0.271-0.154,0.521-0.328,0.753c-0.154,0.23-0.348,0.464-0.579,0.637c-0.232,0.174-0.464,0.329-0.734,0.425
	c-0.251,0.098-0.521,0.155-0.792,0.155h-3.263l0.83-3.862h3.379c0.251,0,0.502,0.06,0.695,0.154
	c0.212,0.097,0.367,0.232,0.502,0.406c0.135,0.174,0.231,0.366,0.29,0.599C71.771,51.226,71.771,51.477,71.732,51.728z
	 M72.35,46.708c-0.058,0.251-0.155,0.482-0.29,0.695c-0.135,0.212-0.309,0.405-0.521,0.579c-0.193,0.154-0.425,0.29-0.657,0.387
	c-0.231,0.096-0.482,0.135-0.714,0.135h-3.031l0.733-3.495h3.128c0.232,0,0.444,0.039,0.637,0.137
	c0.193,0.096,0.329,0.212,0.463,0.366c0.116,0.153,0.212,0.327,0.251,0.541C72.408,46.245,72.408,46.476,72.35,46.708z"/>
<path fill="#FFFFFF" d="M79.224,46.747h-0.482c-0.869,0-1.583,0.192-2.163,0.561c0.019-0.136,0-0.271-0.097-0.387
	s-0.212-0.174-0.367-0.174c-0.155,0-0.29,0.059-0.406,0.154s-0.174,0.23-0.212,0.367l-1.506,7.065c-0.039,0.154,0,0.29,0.077,0.388
	c0.058,0.076,0.174,0.174,0.367,0.174c0.135,0,0.271-0.06,0.406-0.137c0.116-0.097,0.193-0.212,0.231-0.366l0.946-4.421
	c0.154-0.677,0.425-1.218,0.85-1.604c0.405-0.387,0.985-0.58,1.699-0.58h0.502c0.135,0,0.271-0.038,0.386-0.135
	c0.115-0.097,0.174-0.213,0.212-0.348c0.039-0.193-0.02-0.328-0.077-0.387C79.513,46.804,79.378,46.747,79.224,46.747z"/>
<path fill="#FFFFFF" d="M92.856,46.901c-0.116,0-0.232,0.038-0.348,0.115c-0.097,0.078-0.174,0.154-0.232,0.252l-3.244,6.41l0,0
	c-0.039,0.076-0.077,0.153-0.271,0.153c-0.097,0-0.135-0.038-0.135-0.135l-0.521-6.392c-0.02-0.271-0.193-0.426-0.463-0.426
	c-0.155,0-0.271,0.059-0.406,0.154c-0.116,0.097-0.193,0.232-0.212,0.367c0,0.038,0,0.077,0,0.154c0,0.058,0.02,0.097,0.02,0.115
	l0.482,6.294c0.02,0.271,0.135,0.504,0.348,0.677c0.193,0.174,0.444,0.252,0.734,0.252s0.579-0.078,0.83-0.252
	c0.251-0.154,0.463-0.366,0.58-0.638l3.244-6.372c0.02-0.037,0.039-0.097,0.058-0.174c0.039-0.153,0-0.289-0.078-0.404
	C93.146,46.959,93.01,46.901,92.856,46.901z"/>
<g>
	<path fill="#FFFFFF" d="M85.654,48.233c-0.039-0.289-0.155-0.561-0.309-0.772c-0.154-0.212-0.367-0.386-0.618-0.521
		c-0.251-0.115-0.541-0.192-0.869-0.192h-2.8c-0.135,0-0.271,0.038-0.386,0.135c-0.115,0.098-0.174,0.214-0.212,0.349
		c-0.039,0.174-0.019,0.29,0.058,0.386c0.077,0.097,0.212,0.155,0.405,0.155h2.781c0.347,0,0.598,0.115,0.733,0.366
		c0.155,0.271,0.174,0.599,0.097,1.004l-0.985,4.673h-2.587c-0.174,0-0.348-0.038-0.482-0.097c-0.135-0.059-0.251-0.154-0.348-0.271
		c-0.097-0.116-0.154-0.251-0.174-0.387c-0.039-0.154-0.039-0.31,0-0.502c0.039-0.174,0.116-0.349,0.212-0.521
		c0.097-0.153,0.232-0.309,0.367-0.425c0.155-0.115,0.309-0.212,0.483-0.289s0.348-0.116,0.541-0.116h1.873l0.232-1.043h-1.931
		c-0.328,0-0.656,0.06-0.965,0.193c-0.309,0.116-0.599,0.29-0.85,0.502c-0.251,0.213-0.463,0.464-0.657,0.733
		c-0.173,0.289-0.309,0.579-0.367,0.907c-0.077,0.328-0.077,0.638-0.019,0.928c0.058,0.288,0.173,0.54,0.347,0.753
		c0.174,0.212,0.386,0.386,0.657,0.502c0.27,0.115,0.56,0.174,0.888,0.174h2.896c0.212,0,0.386-0.077,0.56-0.213
		c0.174-0.136,0.271-0.31,0.309-0.521l1.062-5.001C85.692,48.851,85.711,48.523,85.654,48.233z"/>
</g>
<g>
	<path fill="#FFFFFF" d="M28.538,49.913l-0.096,0.406h0.019l0.097-0.483C28.558,49.875,28.558,49.894,28.538,49.913z"/>
	<path fill="#FFFFFF" d="M40.799,46.921c-0.058-0.076-0.174-0.154-0.367-0.154h-1.757c-1.062,0-1.912,0.271-2.549,0.831
		c-0.618,0.54-1.062,1.369-1.274,2.433l-0.309,1.448c-0.212,1.022-0.174,1.834,0.116,2.395h-5.098c-0.367,0-0.656-0.059-0.888-0.154
		c-0.212-0.097-0.347-0.252-0.444-0.464c-0.097-0.213-0.135-0.481-0.135-0.812c0-0.309,0.039-0.656,0.116-1.063l0.212-1.043
		c0,0,0.097-0.463,0.116-0.481l0.02-0.135l0,0c0.154-0.562,0.425-1.023,0.811-1.353c0.425-0.387,0.965-0.58,1.583-0.58
		c0.676,0,1.139,0.174,1.39,0.521c0.251,0.347,0.309,0.869,0.154,1.563L32.4,50.338h-3.34l-0.193,1.043h3.649
		c0.212,0,0.405-0.076,0.579-0.213c0.174-0.135,0.271-0.309,0.309-0.521l0.154-0.734c0.212-1.022,0.116-1.813-0.309-2.354
		s-1.139-0.812-2.163-0.812c-0.425,0-0.85,0.077-1.235,0.212c-0.386,0.137-0.753,0.349-1.082,0.6
		c-0.328,0.271-0.618,0.599-0.85,0.983c-0.231,0.388-0.405,0.831-0.521,1.313l-0.251,1.217c-0.135,0.617-0.212,1.178-0.212,1.641
		c-0.019,0.483,0.058,0.89,0.232,1.218c0.174,0.327,0.425,0.578,0.792,0.732c0.348,0.154,0.811,0.232,1.39,0.232h9.365
		c0.135,0,0.271-0.039,0.386-0.137c0.116-0.097,0.174-0.212,0.212-0.348c0.039-0.154,0-0.289-0.077-0.386
		c-0.058-0.077-0.174-0.154-0.367-0.154h-1.757c-0.695,0-1.178-0.192-1.429-0.58c-0.251-0.386-0.309-0.983-0.135-1.736l0.309-1.469
		c0.154-0.732,0.444-1.313,0.869-1.698c0.406-0.387,0.985-0.579,1.738-0.579h1.757c0.309,0,0.521-0.175,0.599-0.482
		C40.915,47.152,40.876,47.016,40.799,46.921z"/>
</g>
<g>
	<path fill="#FFFFFF" d="M99.575,47.557c-0.425-0.541-1.139-0.812-2.163-0.812c-0.425,0-0.85,0.077-1.236,0.212
		c-0.386,0.137-0.753,0.349-1.081,0.6c-0.329,0.271-0.618,0.599-0.85,0.983c-0.232,0.388-0.406,0.831-0.521,1.313l-0.251,1.217
		c-0.135,0.617-0.212,1.178-0.212,1.641c-0.02,0.483,0.058,0.89,0.232,1.218c0.173,0.327,0.425,0.578,0.792,0.732
		c0.348,0.154,0.811,0.232,1.39,0.232h2.414c0.135,0,0.271-0.039,0.386-0.137c0.115-0.097,0.174-0.212,0.212-0.348
		c0.039-0.154,0-0.289-0.077-0.386c-0.077-0.097-0.212-0.154-0.367-0.154h-2.375c-0.367,0-0.657-0.059-0.889-0.155
		c-0.212-0.096-0.347-0.251-0.444-0.463C94.438,53.039,94.4,52.77,94.4,52.44c0-0.31,0.425-2.51,0.425-2.51
		c0.135-0.656,0.425-1.179,0.85-1.563c0.425-0.387,0.965-0.58,1.583-0.58c0.676,0,1.139,0.174,1.39,0.521
		c0.251,0.347,0.309,0.869,0.154,1.563l-0.096,0.463h-3.36l-0.174,1.043h3.668c0.212,0,0.406-0.076,0.58-0.213
		c0.174-0.135,0.27-0.309,0.309-0.521l0.155-0.734C100.097,48.889,100,48.098,99.575,47.557z"/>
</g>
<path fill="#FFFFFF" d="M28.558,49.875"/>
</svg>
