<svg xmlns="http://www.w3.org/2000/svg" xmlns:xlink="http://www.w3.org/1999/xlink" version="1.1" id="レイヤー_1" x="0px" y="0px" viewBox="0 0 462 393" style="enable-background:new 0 0 462 393;" xml:space="preserve"><style type="text/css">
	.st0{fill:#FFFFFF;}
	.st1{fill:#002F7B;}
	.st2{fill:#0068B7;}
	.st3{fill:#C9161D;}
	.st4{fill:none;}
</style><g><path class="st0" d="M224.4,290.3c-26.4-8.8-48.5-21.5-65.9-38c-14-13.2-24.9-28.8-32.4-46.3c-12.3-28.8-11.4-52.9-11.3-55.6V13.6   h224v136.8c0.1,2.1,0.7,18.4-5.6,39.9c-6.1,20.7-20.2,50.4-52.5,74.1c-14.8,10.8-32.3,19.6-52.1,26.1l-1.8,0.6L224.4,290.3z"/><path class="st1" d="M226.8,292.4l-2.9-0.9c-26.5-8.8-48.9-21.7-66.4-38.2c-14.1-13.3-25.1-29.1-32.7-46.7   c-12.4-28.9-11.5-53.3-11.4-56.1v-138h226.5v138c0.1,2,0.7,18.6-5.6,40.3c-6.2,20.9-20.4,50.9-53,74.7   c-14.9,10.9-32.6,19.8-52.5,26.3L226.8,292.4z M116.1,14.8v135.6l0,0c-0.1,2.6-1.1,26.6,11.2,55c7.4,17.4,18.2,32.8,32.1,45.9   c17.2,16.3,39.3,29,65.4,37.7l2.1,0.7l1.4-0.5c19.7-6.5,37.1-15.2,51.8-26c32-23.5,46-52.9,52.1-73.4c6.3-21.4,5.6-37.7,5.5-39.4   v-0.1V14.8H116.1z"/></g><g><g><path class="st1" d="M120.8,19.3v131.3c0,0-6.4,97.1,105.7,134.3V19.3H120.8z"/><path class="st1" d="M333.5,150.6V19.3h-55.8v240.5C337.8,215.8,333.5,150.6,333.5,150.6z"/><path class="st2" d="M277.7,19.3h-50.5h-0.7v265.6c0.2,0.1,0.4,0.2,0.7,0.2c20.6-6.8,37.1-15.5,50.5-25.3V133.2V19.3z"/></g></g><path class="st3" d="M280.7,64.5"/><path class="st0" d="M202.7,150.8c1.4-2.2,6.8-12.2,13.2-24c4.2-0.6,13.7-1.7,21.2-1.5c4.9,0.5,7.2,2.1,6.9,4.8  c-0.1,1-2.2,5.1-6.1,12.1L225.1,165C214.9,164.2,194.8,163.4,202.7,150.8z M218.1,122.8c9.9-18.4,24.8-47.1,25.4-47.1  c13.2,0.1,21.1,1,23.7,1c11-0.3,31.3-3.5,31.2-17.2c0-6.4-5.4-8.4-10.6-11c-0.1,0.1-0.1,0.1-0.2,0.2c2.7,1.9,5,4.1,4.6,7.6  c-1.8,19.8-38.6,16.5-52.4,15.8c-31-1.6-75.2-8-86.2,34.8c0.6-0.1,1.1-0.2,1.7-0.3c0.7-1,1.3-2.4,1.5-2.9  c11-26.3,41.9-27.5,73.2-28.1c-2.4,4.6-39.7,71.5-42.9,76.7c-11.3,18,22.2,16.6,36.2,16l-16.8,30.1c-4.5,8.2-9.9,16.6-16.9,23.5  c0.2,0.1,1.8-0.3,2-0.2c2.5-0.8,3.6-1.8,6.3-2.5c17-4.5,34.6,1.7,51.9-0.6c16.5-2.2,27.4-11.5,30.3-26.2  c3.7-18.4-21.8-25.4-24.5-25.8c23.1-2.3,33.9-9.5,36.8-21.4C301.1,110.7,239.8,120.6,218.1,122.8z M262.3,173.8  c4.8,4.2,6.8,9.6,6,16.2c-1,7.8-5.5,14.2-13.7,19.1c-7.5,4.4-15.7,6.6-24.8,6.5c-3.5,0-6.8-0.4-10-1c-4.7-0.9-6.9-2.2-6.7-3.8  c0.1-0.6,0.7-1.8,1.8-3.8l21.7-39.1C238.5,167.5,253,165.7,262.3,173.8z M281.5,142.2c-1.9,15.2-13.8,23.1-35.6,23.5  c0.1-0.1-1.7-0.1-1.8,0l-6.1-0.1c0,0,13.4-23.7,13.6-24l5.5-10.3c2-3.7,4.9-5.5,8.5-5.4c5.1,0.1,9.2,1.7,12.2,4.9  C280.8,133.8,282,137.7,281.5,142.2z"/><g><path class="st1" d="M55.3,308.6c-0.5-0.6-1.3-1.3-2.9-1.3h-40c-0.9,0-1.9,0.4-2.7,1.1s-1.4,1.5-1.6,2.4c-0.2,1.1,0,2.1,0.6,2.9   c0.7,0.8,1.6,1.3,2.6,1.3h16.1l-11.3,53.3c-0.2,1,0,2,0.6,2.8c0.6,0.9,1.6,1.3,2.7,1.3c0.9,0,1.9-0.4,2.7-1.1   c0.8-0.7,1.4-1.5,1.6-2.4L35.2,315h16.4c1,0,1.9-0.4,2.8-1.1c0.8-0.7,1.4-1.5,1.6-2.5C56.2,310.4,56,309.4,55.3,308.6z"/><g><path class="st2" d="M154.3,329.2c-1.1-1.4-2.5-2.4-4.2-3.1c-1.6-0.7-3.4-1-5.4-1h-14l2.8-12.9c0.3-1.2-0.1-1.9-0.5-2.4    c-0.5-0.6-1.3-0.9-2.1-0.9s-1.6,0.3-2.3,0.8c-0.7,0.6-1.1,1.3-1.3,2.2l-12.1,56.7c-0.2,0.9,0,1.6,0.5,2.3c0.5,0.6,1.2,1,2.1,1    c0.8,0,1.6-0.3,2.3-0.8c0.7-0.6,1.2-1.3,1.3-2.1l8-37.8h14.3c1.1,0,2.1,0.2,3.1,0.7c0.9,0.4,1.6,1.1,2.2,1.9c0.6,0.8,1,1.8,1.2,3    s0.2,2.6-0.2,4.1l-5.9,27.9c-0.2,0.9,0,1.6,0.5,2.3c0.5,0.6,1.2,1,2.1,1c0.8,0,1.6-0.3,2.3-0.8c0.7-0.6,1.2-1.3,1.3-2.1l6-28    c0.5-2.5,0.6-4.7,0.2-6.6C156.1,332.2,155.4,330.5,154.3,329.2z"/><path class="st2" d="M196.7,329.2c-1.1-1.4-2.5-2.4-4.2-3.1c-1.6-0.7-3.4-1-5.4-1h-15.9c-1.3,0-2.5,0.5-3.5,1.3    c-1,0.9-1.6,1.9-1.8,3.1l-8.3,39c-0.2,0.9,0,1.6,0.4,2.3c0.5,0.7,1.2,1,2.1,1c0.8,0,1.6-0.3,2.3-0.9s1.2-1.4,1.4-2.3l8-37.6h14.3    c1.1,0,2.1,0.2,3.1,0.7c0.9,0.4,1.6,1.1,2.2,1.9c0.6,0.8,1,1.8,1.2,3s0.2,2.5-0.1,3.9l-5.9,27.9c-0.2,0.9,0,1.6,0.4,2.3    c0.5,0.7,1.2,1,2.1,1c0.8,0,1.6-0.3,2.3-0.9s1.2-1.3,1.3-2.1l5.9-27.9c0.5-2.5,0.6-4.7,0.2-6.6    C198.6,332.2,197.8,330.5,196.7,329.2z"/><path class="st2" d="M240.4,330.2c-1.1-1.6-2.5-2.8-4.2-3.7c-1.7-0.9-3.7-1.3-6-1.3h-5.4c-2.2,0-4.4,0.4-6.5,1.3s-4,2.1-5.7,3.6    s-3.1,3.3-4.3,5.4s-2.1,4.4-2.6,6.8l-2.9,13.5c-0.5,2.5-0.6,4.7-0.3,6.7c0.4,2,1.1,3.8,2.2,5.3c1.1,1.5,2.6,2.6,4.3,3.4    s3.7,1.2,6,1.2h5.4c2.1,0,4.3-0.4,6.3-1.2c2-0.8,3.9-1.9,5.6-3.3c1.7-1.4,3.1-3.1,4.3-5.1s2-4.2,2.6-6.7l2.9-13.5    c0.5-2.4,0.6-4.7,0.3-6.8C242.1,333.6,241.4,331.7,240.4,330.2z M221.4,366.3H216c-1.3,0-2.5-0.3-3.5-0.8s-1.8-1.3-2.5-2.2    c-0.6-0.9-1.1-2-1.2-3.2c-0.2-1.3-0.1-2.6,0.2-4.1l2.9-13.5c0.3-1.5,0.9-2.9,1.6-4.3c0.8-1.4,1.7-2.6,2.8-3.7s2.3-1.9,3.6-2.6    c1.3-0.6,2.6-0.9,3.9-0.9h5.4c1.3,0,2.4,0.3,3.4,0.9s1.8,1.4,2.4,2.4c0.6,1,1,2.3,1.2,3.6c0.2,1.4,0.2,2.8-0.1,4.2l-2.9,13.5    c-0.3,1.4-0.9,2.8-1.6,4.1c-0.8,1.3-1.7,2.4-2.7,3.4c-1,0.9-2.2,1.7-3.5,2.3C224.1,366,222.8,366.3,221.4,366.3z"/><path class="st1" d="M300.7,333.7c1.8-2.4,3.1-5.2,3.8-8.3c0.5-2.4,0.5-4.8,0.1-7c-0.5-2.2-1.4-4.1-2.7-5.8    c-1.3-1.6-2.9-2.9-4.9-3.9s-4.3-1.4-6.7-1.4h-20c-1.5,0-2.9,0.5-4.1,1.5s-1.9,2.2-2.2,3.7l-11.5,54.1c-0.3,1.6-0.1,3,0.8,4.1    c0.6,0.8,1.8,1.7,3.8,1.7h21.4c2.5,0,5.1-0.5,7.5-1.4s4.7-2.3,6.7-3.9c2-1.7,3.7-3.6,5.2-5.8c1.4-2.2,2.4-4.6,3-7.2    c0.8-3.7,0.5-7-0.8-10c-1-2.3-2.4-4.2-4.2-5.7C297.7,337.1,299.3,335.5,300.7,333.7z M293.2,353.5c-0.3,1.5-0.9,3-1.8,4.3    c-0.9,1.4-2,2.6-3.3,3.7c-1.3,1-2.7,1.9-4.2,2.5s-3,0.9-4.5,0.9h-18.7l4.7-22.1h19.4c1.5,0,2.8,0.3,4,0.8c1.2,0.6,2.1,1.3,2.9,2.3    s1.3,2.1,1.6,3.4C293.6,350.6,293.6,352,293.2,353.5z M296.9,324.8c-0.3,1.4-0.9,2.8-1.6,4c-0.8,1.2-1.8,2.3-2.9,3.3    c-1.2,0.9-2.4,1.7-3.8,2.2c-1.3,0.5-2.7,0.8-4.1,0.8H267l4.2-20h18c1.4,0,2.6,0.3,3.7,0.7c1.1,0.5,1.9,1.2,2.6,2.1    s1.2,1.9,1.4,3.1C297.2,322.1,297.2,323.4,296.9,324.8z"/></g><g><path class="st2" d="M336.2,325h-2.8c-4.9,0-9.1,1.1-12.3,3.2c0.1-0.8,0-1.6-0.5-2.2c-0.5-0.7-1.2-1-2.1-1s-1.7,0.3-2.3,0.9    c-0.6,0.6-1,1.3-1.2,2.1l-8.6,40.5c-0.2,0.9-0.1,1.6,0.4,2.2c0.3,0.4,1,1,2.2,1c0.8,0,1.6-0.3,2.3-0.8c0.7-0.6,1.2-1.3,1.3-2.1    l5.4-25.4c0.8-3.9,2.5-7,4.9-9.2s5.7-3.3,9.8-3.3h2.9c0.8,0,1.6-0.3,2.2-0.8s1-1.2,1.2-2c0.2-1.1-0.1-1.8-0.5-2.2    C337.9,325.3,337.1,325,336.2,325z"/><path class="st2" d="M414.3,325.8c-0.7,0-1.3,0.2-1.9,0.6s-1,0.9-1.3,1.4l-18.7,36.8v0.1c-0.2,0.4-0.5,0.9-1.5,0.9    c-0.6,0-0.8-0.2-0.8-0.7l-2.9-36.6c-0.1-1.5-1.1-2.4-2.7-2.4c-0.8,0-1.6,0.3-2.3,0.9c-0.7,0.6-1.1,1.3-1.3,2.1c0,0.2,0,0.5,0,0.8    s0.1,0.5,0.1,0.7l2.8,36.1c0.1,1.6,0.8,2.8,1.9,3.8s2.6,1.5,4.2,1.5c1.7,0,3.3-0.5,4.8-1.4s2.6-2.1,3.4-3.6l18.6-36.5    c0.1-0.2,0.2-0.6,0.3-1c0.2-0.9,0-1.7-0.5-2.3C415.9,326.2,415.2,325.8,414.3,325.8z"/></g></g><g><path class="st2" d="M373.1,333.5c-0.3-1.7-0.9-3.2-1.7-4.4c-0.9-1.3-2.1-2.2-3.5-2.9c-1.4-0.7-3.1-1.1-5-1.1h-16.1   c-0.8,0-1.6,0.3-2.2,0.8s-1,1.2-1.2,2c-0.2,0.9-0.1,1.7,0.4,2.3c0.5,0.6,1.2,0.9,2.3,0.9H362c2,0,3.4,0.7,4.2,2.1   c0.8,1.5,1,3.4,0.5,5.7l-5.7,26.7h-14.8c-1,0-1.9-0.2-2.8-0.6c-0.8-0.4-1.5-0.9-2-1.5s-0.9-1.4-1-2.3c-0.2-0.9-0.2-1.8,0-2.8   s0.6-2,1.2-3c0.6-0.9,1.3-1.8,2.1-2.4c0.8-0.7,1.8-1.2,2.8-1.7c1-0.4,2-0.6,3.1-0.6h10.7l1.3-6h-11c-1.9,0-3.7,0.4-5.5,1.1   s-3.4,1.7-4.9,2.9c-1.5,1.2-2.7,2.6-3.7,4.2s-1.7,3.4-2.1,5.2c-0.4,1.9-0.4,3.6-0.1,5.3c0.3,1.6,1,3.1,2,4.3c1,1.2,2.3,2.2,3.8,2.9   c1.5,0.7,3.2,1,5.1,1h16.6c1.2,0,2.3-0.4,3.2-1.2c1-0.8,1.6-1.8,1.8-3l6.1-28.7C373.3,337,373.3,335.2,373.1,333.5z"/></g><g><path class="st4" d="M45.9,343.1l-0.5,2.4h0.1l0.5-2.8C46,342.9,46,343,45.9,343.1z"/><path class="st2" d="M116.1,325.9c-0.3-0.4-0.9-0.9-2.1-0.9h-10c-6.1,0-11,1.6-14.6,4.8c-3.6,3.1-6,7.8-7.3,13.9l-1.8,8.3   c-1.3,5.9-1,10.5,0.7,13.7H51.9c-2.1,0-3.8-0.3-5-0.9s-2-1.5-2.6-2.7s-0.8-2.8-0.8-4.6c0-1.7,0.2-3.8,0.7-6.1l1.2-5.9   c0,0,0.6-2.7,0.6-2.8l0.1-0.7l0,0c0.9-3.2,2.4-5.8,4.6-7.8c2.4-2.2,5.5-3.3,9.1-3.3c3.9,0,6.6,1,8,2.9c1.4,2,1.7,5,0.9,8.9   l-0.6,2.7h-19l-1.1,5.9h21c1.2,0,2.4-0.4,3.3-1.2c1-0.8,1.6-1.8,1.8-3l0.9-4.2c1.2-5.9,0.7-10.4-1.8-13.5   c-2.4-3.1-6.6-4.6-12.4-4.6c-2.4,0-4.8,0.4-7.1,1.2c-2.2,0.8-4.3,2-6.2,3.4c-1.9,1.5-3.5,3.4-4.9,5.6s-2.3,4.8-2.9,7.6l-1.5,6.9   c-0.8,3.6-1.2,6.7-1.2,9.4c-0.1,2.7,0.4,5.1,1.3,6.9c0.9,1.9,2.5,3.3,4.5,4.3c2,0.9,4.7,1.4,8,1.4h53.6c0.8,0,1.6-0.3,2.2-0.8   s1-1.2,1.2-2c0.2-0.9,0-1.6-0.4-2.2c-0.3-0.4-0.9-0.9-2.1-0.9h-10c-4,0-6.7-1.1-8.1-3.3c-1.5-2.2-1.7-5.6-0.8-10l1.8-8.4   c0.9-4.2,2.6-7.5,4.9-9.7c2.4-2.2,5.7-3.3,9.9-3.3h10c1.8,0,3-1,3.4-2.8C116.7,327.3,116.6,326.5,116.1,325.9z"/></g><g><path class="st2" d="M452.8,329.7c-2.4-3.1-6.6-4.6-12.4-4.6c-2.4,0-4.8,0.4-7.1,1.2c-2.2,0.8-4.3,2-6.2,3.4   c-1.9,1.5-3.5,3.4-4.9,5.6s-2.3,4.8-2.9,7.6l-1.5,6.9c-0.8,3.6-1.2,6.7-1.2,9.4c-0.1,2.7,0.4,5.1,1.3,6.9c0.9,1.9,2.5,3.3,4.5,4.3   c2,0.9,4.7,1.4,8,1.4h13.8c0.8,0,1.6-0.3,2.2-0.8s1-1.2,1.2-2c0.2-0.9,0-1.6-0.4-2.2c-0.5-0.6-1.2-0.9-2.1-0.9h-13.6   c-2.1,0-3.8-0.3-5-0.9s-2-1.5-2.6-2.7s-0.8-2.8-0.8-4.6c0-1.7,2.4-14.4,2.4-14.4c0.8-3.7,2.4-6.7,4.9-8.9c2.4-2.2,5.5-3.3,9.1-3.3   c3.9,0,6.6,1,8,2.9c1.4,2,1.7,5,0.9,8.9l-0.6,2.7h-19.3l-1,5.9h21c1.2,0,2.4-0.4,3.3-1.2c1-0.8,1.6-1.8,1.8-3l0.9-4.2   C455.8,337.3,455.2,332.7,452.8,329.7z"/></g><path class="st2" d="M46,342.9"/></svg>